<svg  viewBox="0 0 18 18" fill="none" xmlns="http://www.w3.org/2000/svg">
<path d="M11.4545 0.346161H2.31818C2.24318 0.346161 2.18182 0.413383 2.18182 0.495543V1.54122C2.18182 1.62338 2.24318 1.6906 2.31818 1.6906H10.7727V14.5374C10.7727 14.6196 10.8341 14.6868 10.9091 14.6868H11.8636C11.9386 14.6868 12 14.6196 12 14.5374V0.943688C12 0.613181 11.7563 0.346161 11.4545 0.346161ZM9.27273 2.73627H0.545455C0.24375 2.73627 0 3.00329 0 3.3338V13.2434C0 13.4021 0.0579544 13.5534 0.160227 13.6654L3.1142 16.9014C3.1517 16.9425 3.19432 16.9761 3.24034 17.0041V17.0396H3.31193C3.37159 17.0639 3.43466 17.0769 3.49943 17.0769H9.27273C9.57443 17.0769 9.81818 16.8099 9.81818 16.4794V3.3338C9.81818 3.00329 9.57443 2.73627 9.27273 2.73627ZM3.23864 15.1387L1.77102 13.5291H3.23864V15.1387ZM8.59091 15.7325H4.32955V13.081C4.32955 12.6683 4.02443 12.3341 3.64773 12.3341H1.22727V4.08071H8.59091V15.7325Z" fill="currentColor"/>
</svg>
