<svg viewBox="0 0 16 16" fill="none" xmlns="http://www.w3.org/2000/svg">
<path d="M7.56256 2.49996C7.56251 1.91348 7.70425 1.34564 7.963 0.8958C8.22174 0.445958 8.581 0.142758 8.97793 0.0392456C9.37486 -0.0642662 9.78418 0.038502 10.1343 0.32957C10.4844 0.620638 10.7529 1.08147 10.893 1.63144C11.0331 2.18142 11.0357 2.7855 10.9004 3.33802C10.7652 3.89053 10.5007 4.35629 10.1532 4.6538C9.80563 4.95132 9.39725 5.06164 8.99945 4.96547C8.60165 4.8693 8.23976 4.57276 7.97711 4.12774L3.35856 7.2473C3.46474 7.73667 3.46474 8.26172 3.35856 8.75109L7.97711 11.8707C8.25475 11.401 8.64237 11.0981 9.06485 11.0204C9.48734 10.9428 9.91459 11.096 10.2638 11.4504C10.6131 11.8048 10.8594 12.3351 10.9551 12.9386C11.0508 13.5421 10.989 14.1758 10.7818 14.7168C10.5745 15.2579 10.2366 15.6678 9.83339 15.867C9.43019 16.0663 8.99049 16.0408 8.59948 15.7955C8.20848 15.5502 7.89402 15.1025 7.71705 14.5391C7.54007 13.9758 7.5132 13.337 7.64162 12.7465L3.02307 9.62697C2.79443 10.0145 2.48968 10.2909 2.14981 10.4189C1.80993 10.547 1.45124 10.5206 1.12198 10.3433C0.792727 10.1661 0.508701 9.84636 0.308113 9.42728C0.107526 9.00819 0 8.50982 0 7.99919C0 7.48857 0.107526 6.99019 0.308113 6.57111C0.508701 6.15202 0.792727 5.83233 1.12198 5.65504C1.45124 5.47775 1.80993 5.45137 2.14981 5.57945C2.48968 5.70752 2.79443 5.98391 3.02307 6.37142L7.64162 3.25186C7.58905 3.00856 7.56238 2.75499 7.56256 2.49996Z" fill="currentColor"/>
</svg>
